<?xml version="1.0" encoding="utf-8"?>
<!-- Svg Vector Icons : http://www.onlinewebfonts.com/icon -->
<!DOCTYPE svg PUBLIC "-//W3C//DTD SVG 1.1//EN" "http://www.w3.org/Graphics/SVG/1.1/DTD/svg11.dtd">
<svg version="1.1" xmlns="http://www.w3.org/2000/svg" xmlns:xlink="http://www.w3.org/1999/xlink" x="0px" y="0px" viewBox="0 0 1000 1000" enable-background="new 0 0 1000 1000" xml:space="preserve">
<metadata> Svg Vector Icons : http://www.onlinewebfonts.com/icon </metadata>
<g><g><path d="M798.6,142.9H201.4c-28.7,0-52.1,23.4-52.1,52.1v610.1c0,28.7,23.4,52.1,52.1,52.1h597.3c28.7,0,52.1-23.4,52.1-52.1V195C850.7,166.2,827.3,142.9,798.6,142.9z M432,606.6l-85.3-164.3H317v164.3H216.5V203.2h201.4c26.5,0,50,7.5,70.5,22.5c20.5,15,30.7,32.4,30.7,52.2v89.4c0,15.8-6.6,30-19.7,42.9c-13.1,12.8-29.3,21.9-48.4,27.2l88.4,169.2H432z M317,277.7h101.6v89.9H317C317,367.6,317,277.7,317,277.7z M896.4,1.5H103.6C51.9,1.5,10,43.4,10,95.1v809.8c0,51.7,41.9,93.6,93.6,93.6h792.7c51.7,0,93.6-41.9,93.6-93.6V95.1C990,43.4,948.1,1.5,896.4,1.5z M887.6,805.1c0,49.1-39.9,89-89,89H201.4c-49.1,0-89-39.9-89-89V195c0-49.1,39.9-89,89-89h597.3c49.1,0,89,39.9,89,89V805.1z"/></g><g></g><g></g><g></g><g></g><g></g><g></g><g></g><g></g><g></g><g></g><g></g><g></g><g></g><g></g><g></g></g>
</svg>