<svg width="75" height="135" viewBox="0 0 75 135" fill="none" xmlns="http://www.w3.org/2000/svg">
<path d="M17.5456 14.8282H57.8247L71.7603 1.59456C70.4704 0.597568 68.8567 1.33514e-05 67.1023 1.33514e-05H7.91542C6.17175 1.33514e-05 4.57081 0.58905 3.28516 1.5722L17.5456 14.8282Z" fill="#CC3300"/>
<path d="M1.99419 2.81527C0.922634 4.13074 0.278198 5.80838 0.278198 7.6362V59.4245C0.278198 62.3931 1.975 64.9601 4.44937 66.2234L16.1193 57.4774V15.9455L1.99419 2.81527Z" fill="#CC3300"/>
<path d="M58.8974 16.2768V57.4774L70.5673 66.2234C73.0417 64.9601 74.7385 62.3931 74.7385 59.4245V7.6362C74.7385 5.81903 74.1016 4.15418 73.0439 2.84403L58.8974 16.2768Z" fill="#CC3300"/>
<path d="M17.5456 120.171H57.8247L71.7603 133.405C70.4704 134.4 68.8567 135 67.1023 135H7.91542C6.17175 135 4.57081 134.409 3.28516 133.426L17.5456 120.171Z" fill="#CC3300"/>
<path d="M1.99419 132.183C0.922634 130.868 0.278198 129.192 0.278198 127.363V75.5745C0.278198 72.6059 1.975 70.0399 4.44937 68.7755L16.1193 77.5216V119.053L1.99419 132.183Z" fill="#CC3300"/>
<path d="M58.8974 118.722V77.5216L70.5673 68.7755C73.0417 70.0399 74.7385 72.6059 74.7385 75.5745V127.363C74.7385 129.179 74.1016 130.844 73.0439 132.156L58.8974 118.722Z" fill="#CC3300"/>
<path d="M57.7225 59.3967H17.2942L6.52753 67.3333L17.2942 75.2709H32.7082H42.3085H57.7225L68.4892 67.3333L57.7225 59.3967Z" fill="#DDDDDD"/>
</svg>
