<svg width="76" height="135" viewBox="0 0 76 135" fill="none" xmlns="http://www.w3.org/2000/svg">
<path d="M17.824 14.8282H58.1031L72.0387 1.59462C70.7488 0.597629 69.135 7.43866e-05 67.3807 7.43866e-05H8.1938C6.45013 7.43866e-05 4.84919 0.589111 3.56354 1.57226L17.824 14.8282Z" fill="#CC3300"/>
<path d="M2.27257 2.8153C1.20102 4.13078 0.55658 5.80841 0.55658 7.63623V59.4245C0.55658 62.3931 2.25338 64.9602 4.72775 66.2234L16.3977 57.4774V15.9456L2.27257 2.8153Z" fill="#DDDDDD"/>
<path d="M59.1758 16.2768V57.4774L70.8457 66.2234C73.3201 64.9602 75.0169 62.3931 75.0169 59.4245V7.63623C75.0169 5.81906 74.3799 4.15421 73.3222 2.84406L59.1758 16.2768Z" fill="#CC3300"/>
<path d="M17.824 120.171H58.1031L72.0387 133.405C70.7488 134.4 69.135 135 67.3807 135H8.1938C6.45013 135 4.84919 134.409 3.56354 133.426L17.824 120.171Z" fill="#CC3300"/>
<path d="M2.27257 132.183C1.20102 130.868 0.55658 129.192 0.55658 127.363V75.5746C0.55658 72.6059 2.25338 70.04 4.72775 68.7756L16.3977 77.5217V119.053L2.27257 132.183Z" fill="#CC3300"/>
<path d="M59.1758 118.722V77.5217L70.8457 68.7756C73.3201 70.04 75.0169 72.6059 75.0169 75.5746V127.363C75.0169 129.179 74.3799 130.844 73.3222 132.156L59.1758 118.722Z" fill="#DDDDDD"/>
<path d="M58.0009 59.3968H17.5727L6.80597 67.3333L17.5727 75.2709H32.9866H42.587H58.0009L68.7676 67.3333L58.0009 59.3968Z" fill="#CC3300"/>
</svg>
