<svg width="75" height="135" viewBox="0 0 75 135" fill="none" xmlns="http://www.w3.org/2000/svg">
<path d="M17.2674 14.8282H57.5465L71.4821 1.59459C70.1922 0.597598 68.5785 4.3869e-05 66.8241 4.3869e-05H7.63722C5.89355 4.3869e-05 4.29261 0.589081 3.00696 1.57223L17.2674 14.8282Z" fill="#CC3300"/>
<path d="M1.71599 2.81527C0.644436 4.13074 0 5.80838 0 7.6362V59.4245C0 62.3931 1.6968 64.9601 4.17117 66.2234L15.8411 57.4774V15.9455L1.71599 2.81527Z" fill="#CC3300"/>
<path d="M58.6192 16.2768V57.4774L70.2891 66.2234C72.7635 64.9601 74.4603 62.3931 74.4603 59.4245V7.6362C74.4603 5.81903 73.8234 4.15418 72.7657 2.84403L58.6192 16.2768Z" fill="#DDDDDD"/>
<path d="M17.2674 120.171H57.5465L71.4821 133.405C70.1922 134.4 68.5785 135 66.8241 135H7.63722C5.89355 135 4.29261 134.409 3.00696 133.426L17.2674 120.171Z" fill="#CC3300"/>
<path d="M1.71599 132.183C0.644436 130.868 0 129.192 0 127.363V75.5745C0 72.6059 1.6968 70.0399 4.17117 68.7756L15.8411 77.5216V119.053L1.71599 132.183Z" fill="#DDDDDD"/>
<path d="M58.6192 118.722V77.5216L70.2891 68.7755C72.7635 70.0399 74.4603 72.6059 74.4603 75.5745V127.363C74.4603 129.179 73.8234 130.844 72.7657 132.156L58.6192 118.722Z" fill="#CC3300"/>
<path d="M57.4443 59.3968H17.016L6.24933 67.3333L17.016 75.2709H32.43H42.0303H57.4443L68.211 67.3333L57.4443 59.3968Z" fill="#CC3300"/>
</svg>
